/* XPM */
static char *e8ac889e8a794e8391d9f7b69e74516ch1SwYTY90elvHjye[] = {
/* columns rows colors chars-per-pixel */
"32 32 6 1 ",
"  c None",
". c #410041",
"X c #7D0041",
"o c #AA143C",
"O c #D72D2D",
"+ c #FFA3A3",
/* pixels */
"                                ",
"                                ",
"                                ",
"      oooooo                    ",
"    oooXXooooo       oooOO      ",
"   oooXXooooOOO    ooooOOOOO    ",
"   ooX.ooooO+OOO ooXXoOOOOOOO   ",
"  ooX.XoooOOO+OOoo.XoOOOOO+OO   ",
"  oXX.XoooOOO+OOoX.oOOOOOOO+OO  ",
"  oX.XXoooOOOO+OoXooOOOOOOO+OO  ",
"  oX.XXoooOOOO+OOoooOOOOOOO+OO  ",
"  oX.XXoooOOOOOOOooOOOOOOOOOOO  ",
"  ooXXXoooOOOOOOOooOOOOOOOOOOO  ",
"  ooXXXoooOOOOOOOOoOOOOOOOOOOO  ",
"   oXXXoooOOOOOOOOoOOOOOOOOOOO  ",
"   ooXXooooOOOOOOOOOOOOOOOOOO   ",
"    oXXXoooOOOOOOOOOOOOOOOOOO   ",
"    ooXXoooOOOOOOOOOOOOOOOOO    ",
"     oXXXoooOOOOOOOOOOOOOOOO    ",
"     ooXXoooOOOOOOOOOOOOOOO     ",
"      oXXXoooOOOOOOOOOOOOO      ",
"      ooXXoooOOOOOOOOOOOOo      ",
"       ooXXoooOOOOOOOOOoo       ",
"        ooXXoooOOOOOOOoo        ",
"         oooooooOOOOooo         ",
"          oooooooooooo          ",
"           oooooooooo           ",
"             ooooooo            ",
"              oooo              ",
"                                ",
"                                ",
"                                "
};
